<?xml version="1.0" standalone="no"?>
<!DOCTYPE svg PUBLIC "-//W3C//DTD SVG 20010904//EN"
 "http://www.w3.org/TR/2001/REC-SVG-20010904/DTD/svg10.dtd">
<svg version="1.0" xmlns="http://www.w3.org/2000/svg"
 width="260.000000pt" height="260.000000pt" viewBox="0 0 260.000000 260.000000"
 preserveAspectRatio="xMidYMid meet">
<metadata>
Created by potrace 1.11, written by Peter Selinger 2001-2013
</metadata>
<g transform="translate(0.000000,260.000000) scale(0.100000,-0.100000)"
fill="#000000" stroke="none">
<path d="M1730 2005 c-250 -50 -423 -216 -491 -471 -24 -90 -34 -306 -18 -389
5 -27 11 -59 13 -70 83 -451 584 -632 1090 -395 l46 22 0 109 c0 107 -5 124
-30 94 -7 -8 -46 -36 -86 -61 -242 -151 -536 -142 -698 21 -100 101 -147 237
-149 430 -1 275 105 466 303 538 175 64 415 18 588 -113 29 -22 57 -40 63 -40
6 0 9 41 7 111 l-3 110 -77 34 c-126 56 -226 78 -368 81 -74 1 -152 -3 -190
-11z"/>
<path d="M453 1987 c-7 -12 -7 -127 1 -134 3 -3 69 -6 147 -7 l142 -1 0 -445
c0 -245 -3 -463 -6 -485 -12 -89 -49 -136 -127 -159 -64 -19 -201 -15 -274 8
-27 9 -53 16 -58 16 -14 0 -10 -170 5 -175 62 -21 286 -28 358 -11 109 25 183
75 236 159 49 78 51 102 52 693 l1 551 -235 0 c-146 0 -238 -4 -242 -10z"/>
</g>
</svg>
